<svg id="Calque_1" data-name="Calque 1" xmlns="http://www.w3.org/2000/svg" xmlns:xlink="http://www.w3.org/1999/xlink" viewBox="0 0 1920 1080"><defs><style>.cls-1{fill:#29abe2;}.cls-16,.cls-17,.cls-18,.cls-2,.cls-3,.cls-4{stroke:#000;}.cls-10,.cls-11,.cls-12,.cls-13,.cls-14,.cls-15,.cls-16,.cls-17,.cls-18,.cls-2,.cls-3,.cls-4,.cls-5,.cls-6,.cls-7,.cls-8,.cls-9{stroke-miterlimit:10;}.cls-18,.cls-2,.cls-3,.cls-4{stroke-width:0.5px;}.cls-2{fill:url(#Dégradé_sans_nom_42);}.cls-3{fill:url(#Dégradé_sans_nom_42-2);}.cls-4{fill:url(#Dégradé_sans_nom_42-3);}.cls-16,.cls-17,.cls-18,.cls-5{fill:none;}.cls-10,.cls-11,.cls-12,.cls-13,.cls-14,.cls-15,.cls-5,.cls-6,.cls-7,.cls-8,.cls-9{stroke:gray;}.cls-6{fill:url(#Dégradé_sans_nom_42-4);}.cls-7{fill:url(#Dégradé_sans_nom_42-5);}.cls-8{fill:url(#Dégradé_sans_nom_42-6);}.cls-9{fill:url(#Dégradé_sans_nom_42-7);}.cls-10{fill:url(#Dégradé_sans_nom_42-8);}.cls-11{fill:url(#Dégradé_sans_nom_42-9);}.cls-12{fill:url(#Dégradé_sans_nom_42-10);}.cls-13{fill:url(#Dégradé_sans_nom_42-11);}.cls-14{fill:url(#Dégradé_sans_nom_42-12);}.cls-15{fill:url(#Dégradé_sans_nom_42-13);}.cls-17{stroke-width:0.25px;}</style><linearGradient id="Dégradé_sans_nom_42" x1="962.49" y1="531.51" x2="962.56" y2="546.04" gradientUnits="userSpaceOnUse"><stop offset="0" stop-color="#fff"/><stop offset="0.07" stop-color="#cae7ce"/><stop offset="0.14" stop-color="#9ad2a0"/><stop offset="0.2" stop-color="#7bc484"/><stop offset="0.23" stop-color="#70bf79"/><stop offset="0.23" stop-color="#68b771" stop-opacity="0.97"/><stop offset="0.25" stop-color="#58a761" stop-opacity="0.91"/><stop offset="0.27" stop-color="#4c9a55" stop-opacity="0.86"/><stop offset="0.3" stop-color="#44914d" stop-opacity="0.83"/><stop offset="0.33" stop-color="#3e8c47" stop-opacity="0.81"/><stop offset="0.38" stop-color="#3d8a46" stop-opacity="0.8"/><stop offset="0.53" stop-color="#417f2d"/><stop offset="0.67" stop-color="#998675" stop-opacity="0.9"/><stop offset="0.68" stop-color="#998675" stop-opacity="0.88"/><stop offset="0.72" stop-color="#998675" stop-opacity="0.82"/><stop offset="0.78" stop-color="#998675" stop-opacity="0.8"/><stop offset="0.78" stop-color="#938070" stop-opacity="0.8"/><stop offset="0.8" stop-color="#817062" stop-opacity="0.8"/><stop offset="0.83" stop-color="#76665a" stop-opacity="0.8"/><stop offset="0.86" stop-color="#736357" stop-opacity="0.8"/><stop offset="0.88" stop-color="#745941" stop-opacity="0.8"/><stop offset="0.91" stop-color="#755230" stop-opacity="0.8"/><stop offset="0.94" stop-color="#754d27" stop-opacity="0.8"/><stop offset="1" stop-color="#754c24" stop-opacity="0.8"/></linearGradient><linearGradient id="Dégradé_sans_nom_42-2" x1="971.8" y1="531.49" x2="971.87" y2="546" xlink:href="#Dégradé_sans_nom_42"/><linearGradient id="Dégradé_sans_nom_42-3" x1="981.11" y1="531.45" x2="981.18" y2="545.99" xlink:href="#Dégradé_sans_nom_42"/><linearGradient id="Dégradé_sans_nom_42-4" x1="971.42" y1="531.44" x2="971.49" y2="546.04" xlink:href="#Dégradé_sans_nom_42"/><linearGradient id="Dégradé_sans_nom_42-5" x1="962.47" y1="531.48" x2="962.54" y2="546.05" xlink:href="#Dégradé_sans_nom_42"/><linearGradient id="Dégradé_sans_nom_42-6" x1="962.39" y1="531.65" x2="962.46" y2="545.72" xlink:href="#Dégradé_sans_nom_42"/><linearGradient id="Dégradé_sans_nom_42-7" x1="962.62" y1="531.61" x2="962.69" y2="545.87" xlink:href="#Dégradé_sans_nom_42"/><linearGradient id="Dégradé_sans_nom_42-8" x1="971.57" y1="531.51" x2="971.63" y2="545.93" xlink:href="#Dégradé_sans_nom_42"/><linearGradient id="Dégradé_sans_nom_42-9" x1="980.8" y1="531.45" x2="980.87" y2="546.04" xlink:href="#Dégradé_sans_nom_42"/><linearGradient id="Dégradé_sans_nom_42-10" x1="980.84" y1="531.42" x2="980.9" y2="546" xlink:href="#Dégradé_sans_nom_42"/><linearGradient id="Dégradé_sans_nom_42-11" x1="980.96" y1="531.37" x2="981.03" y2="546.08" xlink:href="#Dégradé_sans_nom_42"/><linearGradient id="Dégradé_sans_nom_42-12" x1="980.92" y1="531.4" x2="980.99" y2="545.99" xlink:href="#Dégradé_sans_nom_42"/><linearGradient id="Dégradé_sans_nom_42-13" x1="962.57" y1="531.46" x2="962.64" y2="546.09" xlink:href="#Dégradé_sans_nom_42"/><symbol id="Recherche" data-name="Recherche" viewBox="0 0 35.87 34.79"><path class="cls-1" d="M.29,30.63A1.14,1.14,0,0,1,.37,29L10,20.31a1.14,1.14,0,0,1,1.6.08L15,24.18a1.14,1.14,0,0,1-.08,1.6L5.32,34.5a1.14,1.14,0,0,1-1.6-.08Z"/><path class="cls-1" d="M23.3,0A12.57,12.57,0,1,1,11.43,8.46,12.57,12.57,0,0,1,23.3,0m0,3.41a9.15,9.15,0,0,0-3,17.81,9,9,0,0,0,3,.51A9.18,9.18,0,0,0,32,15.56,9.17,9.17,0,0,0,26.3,3.91h0a9.35,9.35,0,0,0-3-.5Z"/></symbol></defs><title>G</title><path d="M858.1,550.83c0,3.3-1.17,6-2.59,6s-2.69-.85-2.83-1.9-2.22-3.85-4.49-1.46c0,0-4,4.14-11.61,4.14-14,0-20.83-12-20.83-27.26,0-15.48,8.08-27.74,23.09-27.74,11.38,0,16.63,10.15,16.63,10.15,1.51,2.93,1.28,5.33-.53,5.33s-4.55-2.39-6.09-5.3c0,0-2.43-4.56-10.31-4.56-11.07,0-15.88,9.8-15.88,22.15,0,11.46,4.5,21.63,15.08,21.63,11.5,0,13-11.85,13-11.85.42-3.27.77-6,.77-6.12a56.08,56.08,0,0,0-6-.16h-1.91c-3.3,0-6-1.32-6-2.94s2.7-2.93,6-2.93h8.48a6,6,0,0,1,6,6Z"/><path d="M886.92,541.79c0,3.3,0,7.69,0,9.77s-1,5.32-2.22,5.32-2.35-.64-2.41-1.43-1.76-1.52-3.75,1.11c0,0-.67.89-4.94.89-4.56,0-6.72-5.49-6.72-5.49a37.83,37.83,0,0,1-2.2-11.58v-9.67c0-3.3,1.07-6,2.37-6s2.37,2.7,2.37,6v8.63a91.63,91.63,0,0,0,.94,11.93s.26,1.62,4.68,1.62c4.16,0,5.4-4.41,5.4-4.41a52.65,52.65,0,0,0,1.62-11.78v-6c0-3.3,1.09-6,2.41-6s2.42,2.7,2.42,6Z"/><use width="35.87" height="34.79" transform="matrix(0.94, -0.53, 0.52, 0.98, 882.67, 525.77)" xlink:href="#Recherche"/><path d="M930.55,528.24c0-3.3,2.37-6,5.26-6a34.48,34.48,0,0,1,10.82,2.27s8.8,3.58,8.8,15a18.31,18.31,0,0,1-9.49,16.37,29,29,0,0,1-10.4,2.59c-2.75,0-5-2.7-5-6Zm4,20.49c0,3.3,1.31,6,2.9,6s5.3-1.24,8.23-2.75c0,0,5.59-2.89,5.59-12.37,0-8.83-5.38-11.21-5.38-11.21-3-1.33-6.8-2.42-8.41-2.42s-2.93,2.7-2.93,6Z"/><path d="M1006.12,539.5c0,1-2.7,1.79-6,1.79H997.9a6,6,0,0,0-6,6v.21a6,6,0,0,0,6,6h3.64c3.3,0,5.88.8,5.74,1.77s-3,1.76-6.27,1.76h-7a6,6,0,0,1-6-6V529.62a6,6,0,0,1,6-6h6.74c3.3,0,6,.8,6,1.78s-2.7,1.77-6,1.77H997.9c-3.3,0-6,2.37-6,5.27s2.7,5.27,6,5.27h2.22C1003.42,537.71,1006.12,538.52,1006.12,539.5Z"/><path d="M1032.89,547.31c1.08,0,.93,2.5-.33,5.54,0,0-1.94,4.67-9.37,4.67-9.26,0-12.77-7.43-12.77-17.42,0-8.8,4-16.94,13-16.94,7.27,0,9.11,4.7,9.11,4.7,1.2,3.08,1.3,5.59.21,5.59s-3-2.5-4.24-5.55c0,0-.51-1.23-5.22-1.23-6.23,0-8.78,6.39-8.78,13.44s2,13.91,8.81,13.91c4.7,0,5.23-1.21,5.23-1.21C1029.85,549.79,1031.81,547.31,1032.89,547.31Z"/><path d="M1039.13,529.62c0-3.3.88-6,1.95-6s2,2.7,2,6v2.06a6,6,0,0,0,6,6h2.77a6,6,0,0,0,6-6v-2.06c0-3.3.88-6,2-6s2,2.7,2,6V551c0,3.3-.89,6-2,6s-2-2.7-2-6v-3.77a6,6,0,0,0-6-6H1049a6,6,0,0,0-6,6V551c0,3.3-.88,6-2,6s-1.95-2.7-1.95-6Z"/><polyline class="cls-2" points="967.12 548.52 957.95 545.73 957.95 530.77 967.12 533.76"/><polygon class="cls-3" points="976.43 530.68 976.43 545.65 967.25 548.44 967.25 533.68 976.43 530.68"/><polyline class="cls-4" points="976.56 530.52 985.73 533.35 985.73 548.52 976.56 545.49"/><path class="cls-5" d="M976.26,534.8a2.89,2.89,0,0,0-1.14.21,9.84,9.84,0,0,0-1.58.65,5.41,5.41,0,0,0-2.44,3.17,6.92,6.92,0,0,1-2,3.32,2.58,2.58,0,0,1-1.82.62"/><path class="cls-6" d="M966.92,539a11.26,11.26,0,0,1,3.38,0,8.75,8.75,0,0,1,1.66.56l4,1.66"/><path class="cls-5" d="M976.19,542.45c-1.35-.17-1.94-1.2-3.12-1.65a4.09,4.09,0,0,0-2.28-.14c-.53.13-1,.36-1.47.52a3,3,0,0,1-1.61.15,2.26,2.26,0,0,0-.57-.14"/><path class="cls-5" d="M976.3,544.11a8,8,0,0,0-4,.53,4.18,4.18,0,0,0-1.6.76c-.17.16-.32.38-.63.39a1.09,1.09,0,0,1-.4-.07,24.67,24.67,0,0,1-2.33-.83"/><path class="cls-5" d="M966.87,544l-1.86-.7a.47.47,0,0,0-.24-.05.41.41,0,0,0-.25.14l-1.1,1.14a.73.73,0,0,1-.4.24,1,1,0,0,1-.55-.15,15.25,15.25,0,0,1-2.19-1.48,1,1,0,0,0-.78-.3,1,1,0,0,0-.3.11l-1.45.7"/><path class="cls-7" d="M967,539.5a7.35,7.35,0,0,1-1.86.22,8.6,8.6,0,0,0-2.29.78,3.93,3.93,0,0,1-2.48.26c-1-.31-1.26-1.24-2.32-1.44"/><path class="cls-8" d="M957.94,536.18a5.56,5.56,0,0,1,2.41-.26c1.46.06,2.93.09,4.4,0a7.77,7.77,0,0,0,2.13-.3"/><path class="cls-9" d="M957.9,537.4a8.59,8.59,0,0,1,2.85-.27l2.91,0a6.1,6.1,0,0,0,2-.19c.29-.1.54-.24.82-.35a1.59,1.59,0,0,1,.94-.07,1.33,1.33,0,0,0-.53,0"/><path class="cls-5" d="M976.41,534.8l3.7.3a11.18,11.18,0,0,1,1.18.15,8.61,8.61,0,0,1,1.18.4,7.84,7.84,0,0,1,2.64,1.47l.64,0"/><path class="cls-10" d="M966.92,535.6c1.36-.11,2.7-.27,4-.48.52-.08,1-.16,1.55-.28a10.92,10.92,0,0,0,3.74-1.56"/><path class="cls-11" d="M976.36,531.75a.71.71,0,0,1,.58.45,5.37,5.37,0,0,0,3.19,2,20.6,20.6,0,0,0,5.13.75"/><path class="cls-12" d="M976.35,539.72a2.43,2.43,0,0,1,1.37.77c1,.77,2.61,1,3.89,1.62s2.32,1.47,3.81,1.86"/><path class="cls-13" d="M976.47,538.4l4.29,0c.36,0,.73,0,1.09,0a28.58,28.58,0,0,0,3.67.58"/><path class="cls-5" d="M976.64,536.84l2.07-.11a4.6,4.6,0,0,1,.91,0,5.44,5.44,0,0,1,1.36.54,11.35,11.35,0,0,0,4.32.58"/><path class="cls-14" d="M976.47,542.43a9.52,9.52,0,0,1,1.31.55,11.82,11.82,0,0,0,2.13.45,18.21,18.21,0,0,1,5.57,2.23"/><path class="cls-5" d="M976.48,544c1.08.22,1.73,1,2.86,1.11a4.63,4.63,0,0,0,1.44-.18,3.23,3.23,0,0,0,1.06-.37,2.13,2.13,0,0,0,.47-.48,6.74,6.74,0,0,1,2.9-1.92"/><path class="cls-15" d="M958.28,537.47c.91.34,2.11.26,3,.58.71.24,1.17.69,1.88.93,1.11.39,2.55.19,3.72.5"/><path d="M1034.58,502.2l-14.38,3,.54-2.73,13.84-.25m10.71-1.19-25.37.46-1,5,26.37-5.45Z"/><path d="M1032.47,505.56l-4.75,2.1-9.12,4,.56-2.46,13.31-3.66m12.82-4.55-27,7.4-1.14,5,10.94-4.82,17.17-7.56Z"/><polyline class="cls-16" points="1029.02 508.18 1029.49 509.69 1045.29 501"/><polyline class="cls-16" points="1018.92 506.46 1019.28 507.4 1018.32 508.41"/><circle class="cls-17" cx="959.75" cy="534.52" r="1"/><path class="cls-18" d="M1014.51,504.05a25.71,25.71,0,0,1,2.71,1.52"/><path class="cls-18" d="M1006.84,501.51a30.93,30.93,0,0,1,6,1.77"/><path class="cls-18" d="M1001,500.92a33.75,33.75,0,0,1,4.71.39"/><path class="cls-18" d="M993.28,501.71a33,33,0,0,1,6.57-.78"/><path class="cls-18" d="M988.92,503.06a26.9,26.9,0,0,1,2.87-1"/><path class="cls-18" d="M981.85,507.77a19.51,19.51,0,0,1,5.87-4.19"/><path class="cls-18" d="M979.68,512.4a7.22,7.22,0,0,1,1.18-3.36"/><path class="cls-18" d="M981.59,517.63a8.77,8.77,0,0,1-1.84-3.82"/><path class="cls-18" d="M986.23,520.31a7.25,7.25,0,0,1-3.71-1.71"/><path class="cls-18" d="M991.86,518.31a7,7,0,0,1-4.1,2"/><path class="cls-18" d="M993.62,513.23a6.8,6.8,0,0,1-.9,4"/><path class="cls-18" d="M991.78,508.8a9.25,9.25,0,0,1,1.62,3.11"/><path class="cls-18" d="M984.63,504.42a13,13,0,0,1,6.2,3.33"/><path class="cls-18" d="M979.26,504.3a13.56,13.56,0,0,1,4-.11"/><path class="cls-18" d="M974.7,506a13.39,13.39,0,0,1,3.14-1.4"/><path class="cls-18" d="M969.13,512.18a15.38,15.38,0,0,1,4.38-5.33"/><path class="cls-18" d="M966.8,518.78a35.75,35.75,0,0,1,1.76-5.36"/><path class="cls-18" d="M965.17,524.84c.5-1.52.89-3.06,1.27-4.61"/><path class="cls-18" d="M963.2,529.4a22.39,22.39,0,0,0,1.4-3"/><path class="cls-18" d="M960.63,534a2.7,2.7,0,0,0,.4-.25,1.67,1.67,0,0,1,.35-.26c.13,0,.16,0,.25-.14a2.12,2.12,0,0,0,.23-.35,6.74,6.74,0,0,0,.58-1.65"/><path d="M1000.09,573.24a2.71,2.71,0,0,0-2.35,2.25c-.24,1.23-1,2.24-1.67,2.24s-.43-3.51.54-7.8l.17-.77c1-4.29,2.47-7.8,3.34-7.8s2.39,3.51,3.37,7.79l.18.78c1,4.29,1.21,7.8.51,7.8s-1.49-1-1.74-2.24A2.71,2.71,0,0,0,1000.09,573.24Zm0-2.22c.79,0,1.17-1.31.84-2.91s-.85-4.38-.87-4.38-.2.92-.41,2S999.29,571,1000.09,571Z"/><path d="M1007,569.36c0-4.4.55-8,1.22-8s1.22,3.19,1.22,7.09,1.23,7.1,2.73,7.1,2.67.49,2.59,1.09-1.85,1.09-3.94,1.09-3.82-3.6-3.82-8Z"/><path d="M1024.89,573.17c0,2.51-.42,4.56-.93,4.56s-1-.2-1-.45-.8-.26-1.69.72h-1.5c-3.32,0-4.41-3.25-4.41-8.38,0-5.86,1.84-8.51,5.15-8.51h4.09c.16,2.56-.26,4.66-.92,4.66s-1.29-1.12-1.39-2.5h-1.85c-2,0-2.55,2.59-2.55,6.33,0,3.92.48,6.25,2.42,6.25h1.7c.26-2.3.46-4.38.46-4.62s-.52-.44-1.16-.44a1.13,1.13,0,0,1-1.16-1.09c0-.6,1.07-1.09,2.37-1.09S1024.89,570.66,1024.89,573.17Z"/><path d="M1035,569.14c0,.62-1.15,1.12-2.55,1.12a2.6,2.6,0,0,0-2.56,2.63,2.77,2.77,0,0,0,2.86,2.64c1.57,0,2.79.49,2.7,1.1s-1.91,1.1-4.06,1.1-3.91-3.6-3.91-8v-.37c0-4.4,1.75-8,3.88-8s3.89.5,3.89,1.11-1.21,1.12-2.68,1.12a2.49,2.49,0,0,0-2.68,2.22,2.41,2.41,0,0,0,2.56,2.22C1033.84,568,1035,568.53,1035,569.14Z"/><path d="M1040.54,570.56c-.4,0-.73,1.61-.73,3.59s-.54,3.58-1.21,3.58-1.21-3.6-1.21-8v-.37c0-4.4,1-8,2.28-8a26.48,26.48,0,0,1,6.6,1.55v5.23c-1.13.75-1.65,1.76-1.14,2.24s.91,3.4.91,3.57,0,.91,0,1.62-.36,2.16-1,2.16a1.31,1.31,0,0,1-1.32-1.05c-.07-.58-.13-2.56-.13-2.72s-.1-1-.23-1.85S1040.93,570.56,1040.54,570.56Zm-.73-4.6c0,1.38.35,2.51.78,2.51a15.39,15.39,0,0,0,3.23-.88v-3.23a12,12,0,0,0-3.11-.92C1040.22,563.44,1039.81,564.57,1039.81,566Z"/><path d="M1049.76,561.36c.67,0,1.22,3.6,1.22,8v.37c0,4.4-.55,8-1.22,8s-1.22-3.6-1.22-8v-.37C1048.54,565,1049.09,561.36,1049.76,561.36Z"/><path d="M1061.4,569.14c0,.62-1.15,1.12-2.56,1.12a2.6,2.6,0,0,0-2.55,2.63,2.76,2.76,0,0,0,2.85,2.64c1.57,0,2.79.49,2.71,1.1s-1.92,1.1-4.06,1.1-3.91-3.6-3.91-8v-.37c0-4.4,1.74-8,3.88-8s3.88.5,3.88,1.11-1.2,1.12-2.68,1.12a2.48,2.48,0,0,0-2.67,2.22,2.41,2.41,0,0,0,2.55,2.22C1060.25,568,1061.4,568.53,1061.4,569.14Z"/></svg>